<svg xmlns="http://www.w3.org/2000/svg" viewBox="0 0 64 64">
  <rect width="64" height="64" rx="18" fill="#b8ed61"/>
  <g transform="rotate(-32 32 32)">
    <path d="M32 8c-10.8 0-18 8.3-18 19 0 9.7 5.8 16.5 13.7 18.2v9.7c0 2.8 1.7 5.1 4.3 5.1s4.3-2.3 4.3-5.1v-9.7C44.2 43.5 50 36.7 50 27 50 16.3 42.8 8 32 8Z" fill="#102f27"/>
    <g fill="#b8ed61">
      <circle cx="27" cy="21" r="1.9"/><circle cx="37" cy="21" r="1.9"/>
      <circle cx="24" cy="30" r="1.9"/><circle cx="32" cy="30" r="1.9"/><circle cx="40" cy="30" r="1.9"/>
      <circle cx="28" cy="38" r="1.9"/><circle cx="36" cy="38" r="1.9"/>
    </g>
  </g>
  <circle cx="51" cy="13" r="4.5" fill="#102f27"/>
</svg>
